<?xml version="1.0" encoding="utf-8"?>
<!-- Generator: Adobe Illustrator 19.0.0, SVG Export Plug-In . SVG Version: 6.00 Build 0)  -->
<svg version="1.1" id="Layer_1" xmlns="http://www.w3.org/2000/svg" xmlns:xlink="http://www.w3.org/1999/xlink" x="0px" y="0px"
	 width="1400px" height="980px" viewBox="0 0 1400 980" enable-background="new 0 0 1400 980" xml:space="preserve">
<g id="XMLID_1_">
	<rect id="XMLID_160_" fill-rule="evenodd" clip-rule="evenodd" fill="#FFD300" width="1400" height="980"/>
	<g id="XMLID_163_">
		<rect id="XMLID_158_" fill-rule="evenodd" clip-rule="evenodd" fill="#FFBF00" width="47" height="686"/>
		<rect id="XMLID_157_" x="96.6" fill-rule="evenodd" clip-rule="evenodd" fill="#FFBF00" width="47" height="686"/>
		<rect id="XMLID_156_" x="193.3" fill-rule="evenodd" clip-rule="evenodd" fill="#FFBF00" width="47" height="686"/>
		<rect id="XMLID_155_" x="289.9" fill-rule="evenodd" clip-rule="evenodd" fill="#FFBF00" width="47" height="686"/>
		<rect id="XMLID_154_" x="386.5" fill-rule="evenodd" clip-rule="evenodd" fill="#FFBF00" width="47" height="686"/>
		<rect id="XMLID_153_" x="483.2" fill-rule="evenodd" clip-rule="evenodd" fill="#FFBF00" width="47" height="686"/>
		<rect id="XMLID_152_" x="579.8" fill-rule="evenodd" clip-rule="evenodd" fill="#FFBF00" width="47" height="686"/>
		<rect id="XMLID_151_" x="676.5" fill-rule="evenodd" clip-rule="evenodd" fill="#FFBF00" width="47" height="686"/>
		<rect id="XMLID_150_" x="773.1" fill-rule="evenodd" clip-rule="evenodd" fill="#FFBF00" width="47" height="686"/>
		<rect id="XMLID_149_" x="869.7" fill-rule="evenodd" clip-rule="evenodd" fill="#FFBF00" width="47" height="686"/>
		<rect id="XMLID_148_" x="966.4" fill-rule="evenodd" clip-rule="evenodd" fill="#FFBF00" width="47" height="686"/>
		<rect id="XMLID_147_" x="1063" fill-rule="evenodd" clip-rule="evenodd" fill="#FFBF00" width="47" height="686"/>
		<rect id="XMLID_146_" x="1159.6" fill-rule="evenodd" clip-rule="evenodd" fill="#FFBF00" width="47" height="686"/>
		<rect id="XMLID_145_" x="1256.3" fill-rule="evenodd" clip-rule="evenodd" fill="#FFBF00" width="47" height="686"/>
		<rect id="XMLID_144_" x="1352.9" fill-rule="evenodd" clip-rule="evenodd" fill="#FFBF00" width="47" height="686"/>
	</g>
	<rect id="XMLID_129_" y="665" fill-rule="evenodd" clip-rule="evenodd" fill="#A89371" width="1400" height="22"/>
	<rect id="XMLID_159_" y="686" fill-rule="evenodd" clip-rule="evenodd" fill="#B4A385" width="1400" height="294"/>
	<g id="XMLID_162_">
		<rect id="XMLID_73_" x="99.9" y="506.8" fill-rule="evenodd" clip-rule="evenodd" fill="#57AFBD" width="207.7" height="228.7"/>
		<rect id="XMLID_72_" x="92.5" y="726.4" fill-rule="evenodd" clip-rule="evenodd" fill="#65D1D8" width="221.2" height="11.8"/>
		<rect id="XMLID_71_" x="93.1" y="500.9" fill-rule="evenodd" clip-rule="evenodd" fill="#65D1D8" width="221.2" height="15.6"/>
		<rect id="XMLID_70_" x="99.9" y="509.4" fill-rule="evenodd" clip-rule="evenodd" fill="#65D1D8" width="16.1" height="219.6"/>
		<rect id="XMLID_69_" x="290.8" y="509.4" fill-rule="evenodd" clip-rule="evenodd" fill="#65D1D8" width="16.1" height="219.6"/>
		<rect id="XMLID_68_" x="99.9" y="516.5" fill-rule="evenodd" clip-rule="evenodd" fill="#57AFBD" width="16.1" height="10"/>
		<rect id="XMLID_67_" x="291.4" y="516.5" fill-rule="evenodd" clip-rule="evenodd" fill="#57AFBD" width="16.1" height="10"/>
		<rect id="XMLID_66_" x="116" y="516.5" fill-rule="evenodd" clip-rule="evenodd" fill="#449DAD" width="174.8" height="10"/>
		<rect id="XMLID_65_" x="99.9" y="613.5" fill-rule="evenodd" clip-rule="evenodd" fill="#65D1D8" width="207.1" height="15.3"/>
		
			<rect id="XMLID_64_" x="91.7" y="574.1" transform="matrix(0.1444 0.9895 -0.9895 0.1444 681.0618 370.482)" fill-rule="evenodd" clip-rule="evenodd" fill="#F55C20" width="69.1" height="10"/>
		
			<rect id="XMLID_63_" x="93.5" y="575.4" transform="matrix(0.1444 0.9895 -0.9895 0.1444 681.0616 370.4818)" fill-rule="evenodd" clip-rule="evenodd" fill="#E9450A" width="65.6" height="7.3"/>
		
			<rect id="XMLID_62_" x="107.5" y="574.1" transform="matrix(0.3067 0.9518 -0.9518 0.3067 649.6355 266.2585)" fill-rule="evenodd" clip-rule="evenodd" fill="#E5C346" width="69.1" height="10"/>
		
			<rect id="XMLID_61_" x="108.9" y="575.4" transform="matrix(0.3067 0.9518 -0.9518 0.3067 649.6353 266.2579)" fill-rule="evenodd" clip-rule="evenodd" fill="#E1B828" width="66.3" height="7.3"/>
		
			<rect id="XMLID_60_" x="124.7" y="574.1" transform="matrix(0.4784 0.8781 -0.8781 0.4784 591.5931 162.121)" fill-rule="evenodd" clip-rule="evenodd" fill="#6C4824" width="69.1" height="10"/>
		
			<rect id="XMLID_59_" x="126.3" y="575.4" transform="matrix(0.4784 0.8781 -0.8781 0.4784 591.5928 162.1208)" fill-rule="evenodd" clip-rule="evenodd" fill="#4D2D15" width="66" height="7.3"/>
		<path id="XMLID_58_" fill-rule="evenodd" clip-rule="evenodd" fill="#6C4824" d="M203.7,364L203.7,364c2,0,3.6,1.6,3.6,3.6v133.4
			h-7.1V367.5C200.1,365.6,201.7,364,203.7,364"/>
		<path id="XMLID_57_" fill-rule="evenodd" clip-rule="evenodd" fill="#4D2D15" d="M234.3,500.9h-61.2v-4.5c0-2.5,2-4.5,4.5-4.5
			h52.1c2.5,0,4.5,2,4.5,4.5V500.9z"/>
		<rect id="XMLID_56_" x="164" y="369" fill-rule="evenodd" clip-rule="evenodd" fill="#F77D7F" width="79.4" height="56.3"/>
		<rect id="XMLID_55_" x="172.1" y="369" fill-rule="evenodd" clip-rule="evenodd" fill="#FBB7B7" width="16.9" height="56.3"/>
		<path id="XMLID_206_" fill-rule="evenodd" clip-rule="evenodd" fill="#E9450A" d="M272.7,479.9v10.5h4.3c2.1,0,3.8-1.7,3.8-3.8
			v-2.9c0-2.1-1.7-3.8-3.8-3.8H272.7z M246.3,469.5h26.4v4.7h4.3c5.2,0,9.4,4.2,9.4,9.4v2.9c0,5.2-4.2,9.4-9.4,9.4h-4.3v1.6
			c0,1.8-1.5,3.3-3.3,3.3h-19.4c-2,0-3.7-1.7-3.7-3.7V469.5z"/>
		<path id="XMLID_52_" fill-rule="evenodd" clip-rule="evenodd" fill="#F55C20" d="M249.4,469.5h4.7v25.2c0,0.5-0.4,0.8-0.8,0.8
			h-3.1c-0.4,0-0.7-0.3-0.7-0.7V469.5z"/>
		<path id="XMLID_51_" fill-rule="evenodd" clip-rule="evenodd" fill="#FFFFFF" d="M228.8,709.2c0,0-5.7,7.1,0,14.9l-49.8,0
			l-7.5-0.2l-0.4-7.3l1.1-6.1l7.1-0.6L228.8,709.2z"/>
		<path id="XMLID_50_" fill-rule="evenodd" clip-rule="evenodd" fill="#A48C79" d="M172,712.8h54.9c0-0.1,0.1-0.2,0.1-0.2h-54.9
			L172,712.8z"/>
		<polygon id="XMLID_49_" fill-rule="evenodd" clip-rule="evenodd" fill="#A48C79" points="172.4,714 226.6,714 226.6,713.8 
			172.6,713.8 		"/>
		<path id="XMLID_48_" fill-rule="evenodd" clip-rule="evenodd" fill="#A48C79" d="M172.3,715.2h54.1c0-0.1,0-0.2,0-0.2h-54.1V715.2
			z"/>
		<path id="XMLID_47_" fill-rule="evenodd" clip-rule="evenodd" fill="#A48C79" d="M172.3,716.5h54c0-0.1,0-0.2,0-0.2h-54V716.5z"/>
		<path id="XMLID_46_" fill-rule="evenodd" clip-rule="evenodd" fill="#A48C79" d="M172.3,717.7h54c0-0.1,0-0.2,0-0.2h-54V717.7z"/>
		<path id="XMLID_45_" fill-rule="evenodd" clip-rule="evenodd" fill="#A48C79" d="M172.3,718.9h54.2c0-0.1,0-0.2,0-0.2h-54.1V718.9
			z"/>
		<path id="XMLID_44_" fill-rule="evenodd" clip-rule="evenodd" fill="#A48C79" d="M172.9,720.1h53.9c0-0.1,0-0.2-0.1-0.2h-53.9
			L172.9,720.1z"/>
		<path id="XMLID_43_" fill-rule="evenodd" clip-rule="evenodd" fill="#A48C79" d="M171.9,721.3h55.3c0-0.1-0.1-0.2-0.1-0.2h-55.4
			L171.9,721.3z"/>
		<path id="XMLID_42_" fill-rule="evenodd" clip-rule="evenodd" fill="#4D2D15" d="M231.7,708.1H174c-2.2,0-4.1,1.8-4.1,4.1v9.7
			c0,2.2,1.8,4.1,4.1,4.1h58v-3.1h-58c-0.5,0-0.9-0.4-0.9-0.9v-9.7c0-0.5,0.4-0.9,0.9-0.9h58v-2.9
			C231.9,708.2,231.8,708.1,231.7,708.1"/>
		<path id="XMLID_41_" fill-rule="evenodd" clip-rule="evenodd" fill="#FFFFFF" d="M232.2,691.3c0,0-5.7,7.1,0,14.9l-49.8,0
			l-7.5-0.2l-0.4-7.3l1.1-6.1l7.1-0.6L232.2,691.3z"/>
		<path id="XMLID_40_" fill-rule="evenodd" clip-rule="evenodd" fill="#A48C79" d="M175.4,695h54.9c0-0.1,0.1-0.2,0.1-0.2h-54.9
			L175.4,695z"/>
		<polygon id="XMLID_39_" fill-rule="evenodd" clip-rule="evenodd" fill="#A48C79" points="175.9,696.2 230,696.2 230.1,695.9 
			176,695.9 		"/>
		<path id="XMLID_38_" fill-rule="evenodd" clip-rule="evenodd" fill="#A48C79" d="M175.8,697.4h54.1c0-0.1,0-0.2,0-0.2h-54.1V697.4
			z"/>
		<path id="XMLID_37_" fill-rule="evenodd" clip-rule="evenodd" fill="#A48C79" d="M175.8,698.6h54c0-0.1,0-0.2,0-0.2h-54V698.6z"/>
		<path id="XMLID_36_" fill-rule="evenodd" clip-rule="evenodd" fill="#A48C79" d="M175.8,699.8h54c0-0.1,0-0.2,0-0.2h-54V699.8z"/>
		<path id="XMLID_35_" fill-rule="evenodd" clip-rule="evenodd" fill="#A48C79" d="M175.8,701h54.2c0-0.1,0-0.2,0-0.2h-54.1V701z"/>
		<path id="XMLID_34_" fill-rule="evenodd" clip-rule="evenodd" fill="#A48C79" d="M176.4,702.3h53.9c0-0.1,0-0.2-0.1-0.2h-53.9
			L176.4,702.3z"/>
		<path id="XMLID_33_" fill-rule="evenodd" clip-rule="evenodd" fill="#A48C79" d="M175.3,703.5h55.3c0-0.1-0.1-0.2-0.1-0.2h-55.4
			L175.3,703.5z"/>
		<path id="XMLID_32_" fill-rule="evenodd" clip-rule="evenodd" fill="#E9450A" d="M235.2,690.3h-57.8c-2.2,0-4.1,1.8-4.1,4.1v9.7
			c0,2.2,1.8,4.1,4.1,4.1h58V705h-58c-0.5,0-0.9-0.4-0.9-0.9v-9.7c0-0.5,0.4-0.9,0.9-0.9h58v-2.9
			C235.4,690.4,235.3,690.3,235.2,690.3"/>
		<path id="XMLID_31_" fill-rule="evenodd" clip-rule="evenodd" fill="#FFFFFF" d="M235.7,673.5c0,0-5.7,7.1,0,14.9l-49.8,0
			l-7.5-0.2L178,681l1.1-6.1l7.1-0.6L235.7,673.5z"/>
		<path id="XMLID_30_" fill-rule="evenodd" clip-rule="evenodd" fill="#A48C79" d="M178.9,677.1h54.9c0-0.1,0.1-0.2,0.1-0.2H179
			L178.9,677.1z"/>
		<polygon id="XMLID_29_" fill-rule="evenodd" clip-rule="evenodd" fill="#A48C79" points="179.3,678.4 233.5,678.4 233.5,678.1 
			179.5,678.1 		"/>
		<path id="XMLID_28_" fill-rule="evenodd" clip-rule="evenodd" fill="#A48C79" d="M179.2,679.6h54.1c0-0.1,0-0.2,0-0.2h-54.1V679.6
			z"/>
		<path id="XMLID_27_" fill-rule="evenodd" clip-rule="evenodd" fill="#A48C79" d="M179.2,680.8h54c0-0.1,0-0.2,0-0.2h-54V680.8z"/>
		<path id="XMLID_26_" fill-rule="evenodd" clip-rule="evenodd" fill="#A48C79" d="M179.2,682h54c0-0.1,0-0.2,0-0.2h-54V682z"/>
		<path id="XMLID_25_" fill-rule="evenodd" clip-rule="evenodd" fill="#A48C79" d="M179.2,683.2h54.2c0-0.1,0-0.2,0-0.2h-54.1V683.2
			z"/>
		<path id="XMLID_24_" fill-rule="evenodd" clip-rule="evenodd" fill="#A48C79" d="M179.8,684.4h53.9c0-0.1,0-0.2-0.1-0.2h-53.9
			L179.8,684.4z"/>
		<path id="XMLID_23_" fill-rule="evenodd" clip-rule="evenodd" fill="#A48C79" d="M178.8,685.6h55.3c0-0.1-0.1-0.2-0.1-0.2h-55.4
			L178.8,685.6z"/>
		<path id="XMLID_22_" fill-rule="evenodd" clip-rule="evenodd" fill="#F66161" d="M238.6,672.5h-57.8c-2.2,0-4.1,1.8-4.1,4.1v9.7
			c0,2.2,1.8,4.1,4.1,4.1h58v-3.1h-58c-0.5,0-0.9-0.4-0.9-0.9v-9.7c0-0.5,0.4-0.9,0.9-0.9h58v-2.9
			C238.8,672.6,238.8,672.5,238.6,672.5"/>
		<path id="XMLID_21_" fill-rule="evenodd" clip-rule="evenodd" fill="#FFFFFF" d="M226.9,655.7c0,0-5.7,7.1,0,14.9l-49.8,0
			l-7.5-0.2l-0.4-7.3l1.1-6.1l7.1-0.6L226.9,655.7z"/>
		<path id="XMLID_20_" fill-rule="evenodd" clip-rule="evenodd" fill="#A48C79" d="M170.1,659.3h54.9c0-0.1,0.1-0.2,0.1-0.2h-54.9
			L170.1,659.3z"/>
		<polygon id="XMLID_19_" fill-rule="evenodd" clip-rule="evenodd" fill="#A48C79" points="170.6,660.5 224.7,660.5 224.8,660.3 
			170.7,660.3 		"/>
		<path id="XMLID_18_" fill-rule="evenodd" clip-rule="evenodd" fill="#A48C79" d="M170.4,661.7h54.1c0-0.1,0-0.2,0-0.2h-54.1V661.7
			z"/>
		<path id="XMLID_17_" fill-rule="evenodd" clip-rule="evenodd" fill="#A48C79" d="M170.4,663h54c0-0.1,0-0.2,0-0.2h-54V663z"/>
		<path id="XMLID_16_" fill-rule="evenodd" clip-rule="evenodd" fill="#A48C79" d="M170.4,664.2h54c0-0.1,0-0.2,0-0.2h-54V664.2z"/>
		<path id="XMLID_15_" fill-rule="evenodd" clip-rule="evenodd" fill="#A48C79" d="M170.4,665.4h54.2c0-0.1,0-0.2,0-0.2h-54.1V665.4
			z"/>
		<path id="XMLID_14_" fill-rule="evenodd" clip-rule="evenodd" fill="#A48C79" d="M171,666.6h53.9c0-0.1,0-0.2-0.1-0.2h-53.9
			L171,666.6z"/>
		<path id="XMLID_13_" fill-rule="evenodd" clip-rule="evenodd" fill="#A48C79" d="M170,667.8h55.3c0-0.1-0.1-0.2-0.1-0.2h-55.4
			L170,667.8z"/>
		<path id="XMLID_12_" fill-rule="evenodd" clip-rule="evenodd" fill="#FFE290" d="M229.9,654.6h-57.8c-2.2,0-4.1,1.8-4.1,4.1v9.7
			c0,2.2,1.8,4.1,4.1,4.1h58v-3.1h-58c-0.5,0-0.9-0.4-0.9-0.9v-9.7c0-0.5,0.4-0.9,0.9-0.9h58v-2.9
			C230.1,654.7,230,654.6,229.9,654.6"/>
	</g>
	<g id="XMLID_161_">
		<polygon id="XMLID_118_" fill-rule="evenodd" clip-rule="evenodd" fill="#57AFBD" points="1350.9,590.7 1147.6,590.7 
			1147.6,545.6 1150.8,545.6 1150.8,439.4 1249.3,439.4 1347.8,439.4 1347.8,545.6 1350.9,545.6 		"/>
		<rect id="XMLID_117_" x="1150.8" y="444.6" fill-rule="evenodd" clip-rule="evenodd" fill="#449DAD" width="197" height="14.9"/>
		
			<rect id="XMLID_116_" x="1016.3" y="419.8" fill-rule="evenodd" clip-rule="evenodd" fill="#65D1D8" width="17.4" height="307.3"/>
		<rect id="XMLID_115_" x="1016.3" y="444.6" fill-rule="evenodd" clip-rule="evenodd" fill="#57AFBD" width="17.4" height="14.9"/>
		
			<rect id="XMLID_114_" x="1346.5" y="419.8" fill-rule="evenodd" clip-rule="evenodd" fill="#65D1D8" width="17.4" height="307.3"/>
		<rect id="XMLID_113_" x="1346.5" y="444.6" fill-rule="evenodd" clip-rule="evenodd" fill="#57AFBD" width="17.4" height="14.9"/>
		
			<rect id="XMLID_112_" x="1139.9" y="439.4" fill-rule="evenodd" clip-rule="evenodd" fill="#65D1D8" width="10.9" height="175.7"/>
		<rect id="XMLID_111_" x="1139.9" y="444.6" fill-rule="evenodd" clip-rule="evenodd" fill="#57AFBD" width="10.9" height="14.9"/>
		
			<rect id="XMLID_110_" x="1033.7" y="605.9" fill-rule="evenodd" clip-rule="evenodd" fill="#65D1D8" width="117.2" height="10.9"/>
		
			<rect id="XMLID_109_" x="1033.7" y="566.1" fill-rule="evenodd" clip-rule="evenodd" fill="#57AFBD" width="106.2" height="39.8"/>
		<rect id="XMLID_108_" x="1033.7" y="562.3" fill-rule="evenodd" clip-rule="evenodd" fill="#65D1D8" width="106.2" height="3.8"/>
		
			<rect id="XMLID_107_" x="1033.7" y="522.5" fill-rule="evenodd" clip-rule="evenodd" fill="#57AFBD" width="106.2" height="39.8"/>
		<rect id="XMLID_106_" x="1033.7" y="518.7" fill-rule="evenodd" clip-rule="evenodd" fill="#65D1D8" width="106.2" height="3.8"/>
		
			<rect id="XMLID_105_" x="1033.7" y="478.9" fill-rule="evenodd" clip-rule="evenodd" fill="#57AFBD" width="106.2" height="39.8"/>
		<rect id="XMLID_104_" x="1033.7" y="469.1" fill-rule="evenodd" clip-rule="evenodd" fill="#65D1D8" width="117.2" height="9.8"/>
		
			<rect id="XMLID_103_" x="1005.4" y="419.7" fill-rule="evenodd" clip-rule="evenodd" fill="#65D1D8" width="371.5" height="24.9"/>
		<path id="XMLID_102_" fill-rule="evenodd" clip-rule="evenodd" fill="#E5C346" d="M1086.8,493.9c2.7,0,4.9,2.2,4.9,4.9
			c0,2.7-2.2,4.9-4.9,4.9c-2.7,0-4.9-2.2-4.9-4.9C1081.9,496.1,1084.1,493.9,1086.8,493.9"/>
		<path id="XMLID_101_" fill-rule="evenodd" clip-rule="evenodd" fill="#E5C346" d="M1086.8,537.5c2.7,0,4.9,2.2,4.9,4.9
			c0,2.7-2.2,4.9-4.9,4.9c-2.7,0-4.9-2.2-4.9-4.9C1081.9,539.7,1084.1,537.5,1086.8,537.5"/>
		<path id="XMLID_100_" fill-rule="evenodd" clip-rule="evenodd" fill="#E5C346" d="M1086.8,581.1c2.7,0,4.9,2.2,4.9,4.9
			c0,2.7-2.2,4.9-4.9,4.9c-2.7,0-4.9-2.2-4.9-4.9C1081.9,583.3,1084.1,581.1,1086.8,581.1"/>
		<path id="XMLID_99_" fill-rule="evenodd" clip-rule="evenodd" fill="#DADBDA" d="M1218.4,418.6c0,1.4-2.3,0.9-3.7,0.9l-47.8,0
			c-1.4,0-3.7,0.5-3.7-0.9l6.4-36.9c0-1.4,1.1-2.6,2.6-2.6h37.3c1.4,0,2.6,1.1,2.6,2.6L1218.4,418.6z"/>
		<path id="XMLID_98_" fill-rule="evenodd" clip-rule="evenodd" fill="#3E3A39" d="M1292.7,263.9c0-1.4-1.1-2.6-2.6-2.6H1092
			c-1.4,0-2.6,1.1-2.6,2.6v111.2h203.2V263.9z"/>
		<path id="XMLID_97_" fill-rule="evenodd" clip-rule="evenodd" fill="#F7F8F8" d="M1089.5,375.1v17c0,1.4,1.1,2.6,2.6,2.6h198.1
			c1.4,0,2.6-1.1,2.6-2.6v-17H1089.5z"/>
		<path id="XMLID_96_" fill-rule="evenodd" clip-rule="evenodd" fill="#F7F8F8" d="M1218.4,418.6c0,0.5-0.4,0.9-0.9,0.9l-53.3,0
			c-0.5,0-0.9-0.4-0.9-0.9c0-0.5,0.4-0.9,0.9-0.9l53.3,0C1218,417.7,1218.4,418.1,1218.4,418.6"/>
		<path id="XMLID_95_" fill-rule="evenodd" clip-rule="evenodd" fill="#FFFFFF" d="M1262.3,419.6c0,0,0.2-4.8,8-4.8
			c7.7,0,7.7,4.8,7.7,4.8H1262.3z"/>
		<path id="XMLID_94_" fill-rule="evenodd" clip-rule="evenodd" fill="#3E3A39" d="M1190.1,379.6c2.5,0,4.6,2.1,4.6,4.6
			s-2.1,4.6-4.6,4.6c-2.5,0-4.6-2.1-4.6-4.6S1187.5,379.6,1190.1,379.6"/>
		<rect id="XMLID_7_" x="1186.1" y="567.8" fill-rule="evenodd" clip-rule="evenodd" fill="#3E3A39" width="9.9" height="148.3"/>
		<path id="XMLID_6_" fill-rule="evenodd" clip-rule="evenodd" fill="#F5836D" d="M1275.3,475.5c-0.6-4.4-3.9-7.8-11.3-11.2
			c-21.2-9.9-49.3-11.6-72.5-11.6c-20.9,0-42.7,1.4-62.7,8.1c-6.3,2.1-16.9,4.5-20.6,10.6c-4.2,6.9,2.3,15.2,4.8,22
			c8.5,23,12,48.4,6.7,72.5c-10.4,47.9,71.8,46.2,71.8,46.2c0,0,82.1,1.7,71.8-46.2c-0.1-0.6-0.3-1.2-0.4-1.8
			c-4.9-24.5-1.5-52.4,8.9-75.2C1274.3,483.3,1275.7,479.1,1275.3,475.5"/>
		<rect id="XMLID_5_" x="1116.7" y="704.3" fill-rule="evenodd" clip-rule="evenodd" fill="#3E3A39" width="148.7" height="11.8"/>
		<rect id="XMLID_4_" x="1116.7" y="704.3" fill-rule="evenodd" clip-rule="evenodd" fill="#3E3A39" width="7.6" height="25.6"/>
		<rect id="XMLID_3_" x="1258" y="704.3" fill-rule="evenodd" clip-rule="evenodd" fill="#3E3A39" width="7.6" height="25.6"/>
		<rect id="XMLID_2_" x="1186.3" y="704.3" fill-rule="evenodd" clip-rule="evenodd" fill="#3E3A39" width="9.6" height="25.6"/>
	</g>
	<path id="XMLID_128_" fill-rule="evenodd" clip-rule="evenodd" fill="#E5816A" d="M407.8,599.5l514.5,1.6V451.8
		c0-38.3-31.3-69.5-69.6-69.6l-375.1-1.6c-38.4-0.2-69.8,31.4-69.8,69.8V599.5z"/>
	<path id="XMLID_127_" fill-rule="evenodd" clip-rule="evenodd" fill="#E06E51" d="M422.8,607.2l484.5,1.5V451.8
		c0-30.1-24.7-54.5-54.7-54.6l-375.1-1.6c-30.1-0.1-54.7,24.7-54.7,54.8V607.2z"/>
	<path id="XMLID_126_" fill-rule="evenodd" clip-rule="evenodd" fill="#F5D66D" d="M1045.6,776.3c0,20.2-15.2,36.6-34,36.6H316.5
		c-18.8,0-34-16.4-34-36.6v-76.3c0-20.2,15.2-36.6,34-36.6l695.1,0c18.8,0,34,16.4,34,36.6V776.3z"/>
	<path id="XMLID_125_" fill-rule="evenodd" clip-rule="evenodd" fill="#58391D" d="M1045.6,776.3c0,20.2-15.2,36.6-34,36.6H316.5
		c-18.8,0-34-16.4-34-36.6v-38.1h763V776.3z"/>
	<polygon id="XMLID_124_" fill-rule="evenodd" clip-rule="evenodd" fill="#FFE290" points="302.6,666.5 439.6,579.7 665.3,579.7 
		662.8,579.7 888.5,579.7 1025.6,666.5 	"/>
	<rect id="XMLID_123_" x="321.5" y="812.2" fill-rule="evenodd" clip-rule="evenodd" fill="#58391D" width="30.4" height="58.3"/>
	<rect id="XMLID_122_" x="976.3" y="812.2" fill-rule="evenodd" clip-rule="evenodd" fill="#58391D" width="30.4" height="58.3"/>
	<rect id="XMLID_121_" x="321.5" y="812.2" fill-rule="evenodd" clip-rule="evenodd" fill="#412611" width="685.2" height="21.4"/>
	<rect id="XMLID_120_" x="976.3" y="812.2" fill-rule="evenodd" clip-rule="evenodd" fill="#4D2D15" width="30.4" height="21.4"/>
	<rect id="XMLID_119_" x="321.5" y="812.2" fill-rule="evenodd" clip-rule="evenodd" fill="#4D2D15" width="30.4" height="21.4"/>
	<path id="XMLID_93_" fill-rule="evenodd" clip-rule="evenodd" fill="#231916" d="M732.9,207.6c0-38-30.8-68.8-68.8-68.8
		c-38,0-68.8,30.8-68.8,68.8c0,38,30.8,68.8,68.8,68.8C702.1,276.4,732.9,245.6,732.9,207.6"/>
	<path id="XMLID_92_" fill-rule="evenodd" clip-rule="evenodd" fill="#F4F3F1" d="M727.3,207.6c0-34.9-28.3-63.2-63.2-63.2
		c-34.9,0-63.2,28.3-63.2,63.2c0,34.9,28.3,63.2,63.2,63.2C699,270.7,727.3,242.5,727.3,207.6"/>
	<path id="XMLID_91_" fill-rule="evenodd" clip-rule="evenodd" fill="#727273" d="M663.5,148.1v5c0,0.3,0.2,0.6,0.6,0.6
		c0.3,0,0.6-0.2,0.6-0.6v-5c0-0.3-0.2-0.6-0.6-0.6C663.8,147.6,663.5,147.8,663.5,148.1"/>
	<path id="XMLID_90_" fill-rule="evenodd" clip-rule="evenodd" fill="#727273" d="M663.5,261.9v5c0,0.3,0.2,0.6,0.6,0.6
		c0.3,0,0.6-0.2,0.6-0.6v-5c0-0.3-0.2-0.6-0.6-0.6C663.8,261.4,663.5,261.6,663.5,261.9"/>
	<path id="XMLID_89_" fill-rule="evenodd" clip-rule="evenodd" fill="#727273" d="M723.5,207h-5c-0.3,0-0.6,0.2-0.6,0.6
		c0,0.3,0.2,0.6,0.6,0.6l5,0c0.3,0,0.6-0.2,0.6-0.6C724.1,207.2,723.8,207,723.5,207"/>
	<path id="XMLID_88_" fill-rule="evenodd" clip-rule="evenodd" fill="#727273" d="M609.7,207h-5c-0.3,0-0.6,0.2-0.6,0.6
		c0,0.3,0.2,0.6,0.6,0.6l5,0c0.3,0,0.6-0.2,0.6-0.6C610.3,207.2,610,207,609.7,207"/>
	<path id="XMLID_87_" fill-rule="evenodd" clip-rule="evenodd" fill="#727273" d="M663.5,148.1v5c0,0.3,0.2,0.6,0.6,0.6
		c0.3,0,0.6-0.2,0.6-0.6v-5c0-0.3-0.2-0.6-0.6-0.6C663.8,147.6,663.5,147.8,663.5,148.1"/>
	<path id="XMLID_86_" fill-rule="evenodd" clip-rule="evenodd" fill="#727273" d="M663.5,261.9v5c0,0.3,0.2,0.6,0.6,0.6
		c0.3,0,0.6-0.2,0.6-0.6v-5c0-0.3-0.2-0.6-0.6-0.6C663.8,261.4,663.5,261.6,663.5,261.9"/>
	<path id="XMLID_85_" fill-rule="evenodd" clip-rule="evenodd" fill="#727273" d="M723.5,207h-5c-0.3,0-0.6,0.2-0.6,0.6
		c0,0.3,0.2,0.6,0.6,0.6l5,0c0.3,0,0.6-0.2,0.6-0.6C724.1,207.2,723.8,207,723.5,207"/>
	<path id="XMLID_84_" fill-rule="evenodd" clip-rule="evenodd" fill="#727273" d="M609.7,207h-5c-0.3,0-0.6,0.2-0.6,0.6
		c0,0.3,0.2,0.6,0.6,0.6l5,0c0.3,0,0.6-0.2,0.6-0.6C610.3,207.2,610,207,609.7,207"/>
	<path id="XMLID_83_" fill-rule="evenodd" clip-rule="evenodd" fill="#727273" d="M692.1,155.2l-2.4,4.4c-0.1,0.3,0,0.6,0.2,0.8
		c0.3,0.1,0.6,0,0.8-0.2l2.4-4.4c0.1-0.3,0-0.6-0.2-0.8C692.6,154.8,692.3,154.9,692.1,155.2"/>
	<path id="XMLID_82_" fill-rule="evenodd" clip-rule="evenodd" fill="#727273" d="M637.5,255l-2.4,4.4c-0.1,0.3,0,0.6,0.2,0.8
		c0.3,0.1,0.6,0,0.8-0.2l2.4-4.4c0.1-0.3,0-0.6-0.2-0.8C638,254.6,637.6,254.7,637.5,255"/>
	<path id="XMLID_81_" fill-rule="evenodd" clip-rule="evenodd" fill="#727273" d="M716.5,235.6l-4.4-2.4c-0.3-0.1-0.6,0-0.8,0.2
		c-0.1,0.3,0,0.6,0.2,0.8l4.4,2.4c0.3,0.1,0.6,0,0.8-0.2C716.8,236.1,716.7,235.8,716.5,235.6"/>
	<path id="XMLID_80_" fill-rule="evenodd" clip-rule="evenodd" fill="#727273" d="M616.6,180.9l-4.4-2.4c-0.3-0.1-0.6,0-0.8,0.2
		c-0.1,0.3,0,0.6,0.2,0.8l4.4,2.4c0.3,0.1,0.6,0,0.8-0.2C617,181.4,616.9,181.1,616.6,180.9"/>
	<path id="XMLID_79_" fill-rule="evenodd" clip-rule="evenodd" fill="#727273" d="M713.8,175.1l-4.2,2.7c-0.3,0.2-0.3,0.5-0.2,0.8
		c0.2,0.3,0.5,0.3,0.8,0.2l4.2-2.7c0.3-0.2,0.3-0.5,0.2-0.8C714.4,175,714.1,174.9,713.8,175.1"/>
	<path id="XMLID_78_" fill-rule="evenodd" clip-rule="evenodd" fill="#727273" d="M618,236.4l-4.2,2.7c-0.3,0.2-0.3,0.5-0.2,0.8
		c0.2,0.3,0.5,0.3,0.8,0.2l4.2-2.7c0.3-0.2,0.3-0.5,0.2-0.8C618.6,236.3,618.2,236.2,618,236.4"/>
	<path id="XMLID_77_" fill-rule="evenodd" clip-rule="evenodd" fill="#727273" d="M696.6,257.3l-2.7-4.2c-0.2-0.3-0.5-0.3-0.8-0.2
		c-0.3,0.2-0.3,0.5-0.2,0.8l2.7,4.2c0.2,0.3,0.5,0.3,0.8,0.2C696.7,257.9,696.7,257.6,696.6,257.3"/>
	<path id="XMLID_76_" fill-rule="evenodd" clip-rule="evenodd" fill="#727273" d="M635.3,161.4l-2.7-4.2c-0.2-0.3-0.5-0.3-0.8-0.2
		c-0.3,0.2-0.3,0.5-0.2,0.8l2.7,4.2c0.2,0.3,0.5,0.3,0.8,0.2C635.3,162,635.4,161.7,635.3,161.4"/>
	<path id="XMLID_75_" fill-rule="evenodd" clip-rule="evenodd" fill="#231916" d="M633.4,230.6c2.8-1.5,5.5-3.2,8.2-4.8
		c0.7-0.4,1.4-0.8,2-1.3c0.6-0.5,1.3-1,1.9-1.4l3.8-2.8l15.3-11.2c0.3-0.2,0.5-0.6,0.5-0.9v-25l0-12.5c0.1-1-0.1-2.1-0.2-3.1
		l-0.3-3.1c-0.2-2.1-0.4-4.2-0.7-6.2c-0.2,2.1-0.5,4.2-0.7,6.2l-0.3,3.1c-0.1,1-0.2,2.1-0.2,3.1l0,12.5v25l0.5-0.9l-15.3,11.2
		l-3.8,2.8c-0.6,0.5-1.3,0.9-1.9,1.4c-0.7,0.4-1.2,1-1.8,1.5C638.1,226.3,635.7,228.4,633.4,230.6"/>
	<path id="XMLID_74_" fill-rule="evenodd" clip-rule="evenodd" fill="#E50013" d="M663.9,207.4l-30.7,37.5c-0.1,0.1-0.1,0.3,0,0.4
		c0.1,0.1,0.3,0.1,0.4,0l30.7-37.5c0.1-0.1,0.1-0.3,0-0.4C664.1,207.2,664,207.3,663.9,207.4"/>
	<path id="XMLID_11_" fill-rule="evenodd" clip-rule="evenodd" fill="#D3E8EB" d="M650.4,573.9c0,14-14.3,25.3-32,25.3l-113.9,0
		c-17.7,0-32-11.3-32-25.3v-16.2c0-14,14.3-25.3,32-25.3h113.9c17.7,0,32,11.3,32,25.3V573.9z"/>
	<path id="XMLID_10_" fill-rule="evenodd" clip-rule="evenodd" fill="#BCDAE2" d="M650.4,573.9c0,14-14.3,25.3-32,25.3l-113.9,0
		c-9.7,0-18.4-3.4-24.3-8.8c58-3.3,114.8-9.9,170.3-20.5V573.9z"/>
	<path id="XMLID_9_" fill-rule="evenodd" clip-rule="evenodd" fill="#D3E8EB" d="M857.7,573.9c0,14-14.3,25.3-32,25.3l-113.9,0
		c-17.7,0-32-11.3-32-25.3v-16.2c0-14,14.3-25.3,32-25.3h113.9c17.7,0,32,11.3,32,25.3V573.9z"/>
	<path id="XMLID_8_" fill-rule="evenodd" clip-rule="evenodd" fill="#BCDAE2" d="M857.7,573.9c0,14-14.3,25.3-32,25.3l-113.9,0
		c-9.7,0-18.4-3.4-24.3-8.8c58-3.3,114.8-9.9,170.3-20.5V573.9z"/>
</g>
</svg>
