<?xml version="1.0" encoding="utf-8"?>
<!-- Generator: Adobe Illustrator 19.0.0, SVG Export Plug-In . SVG Version: 6.00 Build 0)  -->
<svg version="1.1" xmlns="http://www.w3.org/2000/svg" xmlns:xlink="http://www.w3.org/1999/xlink" x="0px" y="0px"
	 viewBox="0 0 1400 980" style="enable-background:new 0 0 1400 980;" xml:space="preserve">
<style type="text/css">
	.st0{fill:#C68060;}
	.st1{fill:#FFDEA8;}
	.st2{fill:#9D5B1D;}
	.st3{fill:#C5711B;}
	.st4{fill:#FFFFFF;}
	.st5{fill:#575756;}
	.st6{fill:#4F4C4D;}
	.st7{fill:#878787;}
	.st8{fill:#F6F6F6;stroke:#F6F6F6;stroke-miterlimit:10;}
	.st9{fill:#97DAF8;}
	.st10{opacity:0.46;fill:#FFFFFF;}
	.st11{opacity:0.27;fill:#FFFFFF;}
	.st12{fill:#BEC0C2;}
	.st13{fill:#3C3C3B;}
	.st14{fill:#39C7BD;}
	.st15{fill:#683C11;}
	.st16{fill:none;stroke:#F6F6F6;stroke-width:0.75;stroke-miterlimit:10;}
	.st17{fill:#03A1C3;}
	.st18{fill:#FFD04F;}
	.st19{fill:#57BD7D;}
</style>
<g id="Layer_1">
	<rect x="0" y="836.6" class="st0" width="1400" height="143.4"/>
	<rect x="0" y="0" class="st1" width="1400" height="836.6"/>
</g>
<g id="Layer_3">
	<g>
		<rect x="375.8" y="569.9" class="st2" width="1042.4" height="31.9"/>
		<rect x="395.4" y="601.8" class="st3" width="1003.1" height="301.9"/>
		<rect x="779.4" y="635" class="st2" width="62.9" height="10"/>
		<rect x="698.7" y="601.8" class="st2" width="3.4" height="301.9"/>
		<path class="st2" d="M684,886.4H407.9V673.9H684V886.4z M411.2,883.1h269.5V677.3H411.2V883.1z"/>
		<path class="st2" d="M907.7,681.7h-200v-69.6h200V681.7z M711.5,679.9h192.4V614H711.5V679.9z"/>
		<rect x="779.4" y="695.2" class="st2" width="62.9" height="10"/>
		<path class="st2" d="M907.7,751.3h-200v-69.6h200V751.3z M711.5,749.5h192.4v-65.9H711.5V749.5z"/>
		<rect x="779.4" y="783.3" class="st2" width="62.9" height="10"/>
		<path class="st2" d="M907.7,830h-200v-69.6h200V830z M711.5,828.2h192.4v-65.9H711.5V828.2z"/>
		<rect x="779.4" y="843.4" class="st2" width="62.9" height="10"/>
		<path class="st2" d="M907.7,899.6h-200V830h200V899.6z M711.5,897.8h192.4v-65.9H711.5V897.8z"/>
		<rect x="1268.5" y="635" class="st2" width="62.9" height="10"/>
		<path class="st2" d="M1396.8,681.7h-200v-69.6h200V681.7z M1200.6,679.9H1393V614h-192.4V679.9z"/>
		<rect x="1268.5" y="695.2" class="st2" width="62.9" height="10"/>
		<path class="st2" d="M1396.8,751.3h-200v-69.6h200V751.3z M1200.6,749.5H1393v-65.9h-192.4V749.5z"/>
		<rect x="1268.5" y="783.3" class="st2" width="62.9" height="10"/>
		<path class="st2" d="M1396.8,830h-200v-69.6h200V830z M1200.6,828.2H1393v-65.9h-192.4V828.2z"/>
		<rect x="1268.5" y="843.4" class="st2" width="62.9" height="10"/>
		<path class="st2" d="M1396.8,899.6h-200V830h200V899.6z M1200.6,897.8H1393v-65.9h-192.4V897.8z"/>
		<path class="st2" d="M684,673.9H407.9v-61.8H684V673.9z M411.2,670.1h269.5V616H411.2V670.1z"/>
		<rect x="660.6" y="737.9" class="st2" width="11.5" height="79.1"/>
		<rect x="513.1" y="640.6" class="st2" width="62.9" height="10"/>
		<g>
			<rect x="913.2" y="601.8" class="st4" width="276.4" height="301.9"/>
			<rect x="970.1" y="689.9" class="st5" width="162.7" height="10.5"/>
			<rect x="913.2" y="601.8" class="st6" width="276.4" height="57.7"/>
			<path class="st7" d="M1158.8,644h-41.5c-5.7,0-10.2-4.6-10.2-10.2v0c0-5.7,4.6-10.2,10.2-10.2h41.5c5.7,0,10.2,4.6,10.2,10.2v0
				C1169,639.5,1164.4,644,1158.8,644z"/>
			<line class="st8" x1="1130.1" y1="626.4" x2="1150.8" y2="641"/>
			<line class="st8" x1="1118.9" y1="626.4" x2="1139.6" y2="641"/>
			<path class="st9" d="M936.7,718.2v139h229.4v-139H936.7z"/>
			<line class="st8" x1="1010.4" y1="748.4" x2="1103" y2="812.9"/>
			<line class="st8" x1="1013.6" y1="790.7" x2="1056.1" y2="818.2"/>
			<circle class="st4" cx="943.4" cy="633.8" r="11.7"/>
			<circle class="st4" cx="984.4" cy="633.8" r="11.7"/>
			<circle class="st4" cx="1027.5" cy="633.8" r="11.7"/>
			<circle class="st4" cx="1068.5" cy="633.8" r="11.7"/>
		</g>
	</g>
	<g>
		<rect x="388.7" class="st3" width="449.5" height="261.7"/>
		<rect x="626.2" y="104.3" class="st2" width="9.2" height="121.7"/>
		<rect x="591.9" y="104.3" class="st2" width="9.2" height="121.7"/>
		<rect x="611.3" y="-0.2" class="st2" width="4.4" height="261.9"/>
		<rect x="1204" class="st3" width="196" height="261.7"/>
		<rect x="1204" y="-0.2" class="st2" width="4.4" height="261.9"/>
		<rect x="833.9" y="-0.2" class="st2" width="4.4" height="261.9"/>
		<rect x="388.7" y="-0.2" class="st2" width="4.4" height="176.6"/>
	</g>
	<g>
		<rect x="23" class="st3" width="365.8" height="176.4"/>
		<rect x="23" y="17.4" class="st2" width="365.8" height="4.4"/>
		<rect x="149.5" y="156" class="st2" width="121.7" height="9.2"/>
		<rect x="51" y="34.2" class="st10" width="311.7" height="110.7"/>
		<polygon class="st11" points="240.5,34.2 180.5,144.9 155.3,144.9 215.2,34.2 		"/>
		<polygon class="st11" points="322.7,34.2 262.8,144.9 210.4,144.9 270.4,34.2 		"/>
	</g>
	<g>
		<rect x="838.3" y="0" class="st3" width="365.8" height="261.5"/>
		<rect x="838.3" y="102.6" class="st2" width="365.8" height="4.4"/>
		<rect x="964.8" y="241.2" class="st2" width="121.7" height="9.2"/>
		<rect x="866.3" y="119.4" class="st10" width="311.7" height="110.7"/>
		<polygon class="st11" points="1055.7,119.4 995.8,230.1 970.6,230.1 1030.5,119.4 		"/>
		<polygon class="st11" points="1138,119.4 1078.1,230.1 1025.7,230.1 1085.6,119.4 		"/>
		<rect x="964.8" y="80.4" class="st2" width="121.7" height="9.2"/>
		<rect x="866.3" y="-0.4" class="st10" width="311.7" height="69.7"/>
		<polygon class="st11" points="1008.3,-0.4 970.6,69.3 995.8,69.3 1033.5,-0.4 		"/>
		<polygon class="st11" points="1063.4,-0.4 1025.7,69.3 1078.1,69.3 1115.8,-0.4 		"/>
	</g>
</g>
<g id="Layer_2_1_">
	<g>
		<path class="st4" d="M367.9,857.9V201.1c0-8.8-7.1-15.9-15.9-15.9h-313c-8.8,0-15.9,7.1-15.9,15.9v656.8c0,8.8,7.2,16,16,16h312.9
			C360.7,873.9,367.9,866.7,367.9,857.9z"/>
		<rect x="33.7" y="873.9" class="st12" width="318.1" height="25.7"/>
		<rect x="23" y="457.5" class="st12" width="344.9" height="20.1"/>
		<path class="st12" d="M67.3,238.9L67.3,238.9c-5.8,0-10.6,4.7-10.6,10.6c0,26.7,0,96.6,0,123.3c0,5.8,4.7,10.6,10.6,10.6h0
			c5.8,0,10.6-4.7,10.6-10.6V249.4C77.9,243.6,73.2,238.9,67.3,238.9z"/>
		<path class="st12" d="M67.3,523.9L67.3,523.9c-5.8,0-10.6,4.7-10.6,10.6v151.6c0,5.8,4.7,10.6,10.6,10.6h0
			c5.8,0,10.6-4.7,10.6-10.6V534.5C77.9,528.6,73.2,523.9,67.3,523.9z"/>
	</g>
</g>
<g id="Layer_4">
	<rect x="714.1" y="488.2" class="st4" width="18.7" height="5"/>
	<rect x="817.2" y="488.2" class="st4" width="18.7" height="5"/>
	<rect x="724.6" y="488.3" class="st6" width="100.4" height="81.6"/>
	<path class="st13" d="M717.9,488.2h-13c-1.6,0-2.8,1.3-2.8,2.8l0,0c0,4.9,3.9,8.8,8.8,8.8h7c1.6,0,2.8-1.3,2.8-2.8v-6
		C720.7,489.5,719.5,488.2,717.9,488.2z"/>
	<path class="st13" d="M832,488.2h13c1.6,0,2.8,1.3,2.8,2.8l0,0c0,4.9-3.9,8.8-8.8,8.8h-7c-1.6,0-2.8-1.3-2.8-2.8v-6
		C829.2,489.5,830.5,488.2,832,488.2z"/>
	<path class="st4" d="M542.8,468.3h-16.6c-3.9,0-6.2,4.5-3.8,7.6l20.3,26.4V468.3z"/>
	<path class="st4" d="M627.7,493.2c0,0-2.9-13.3-16.5-13.3h-11.4v-14.4h-57v104.8h57v-23.1c6.8-1.6,12.5-5.1,17-10.4
		C633.7,516.9,628,494.9,627.7,493.2z M610.2,531.4c-2.9,3.4-6.4,5.7-10.5,7.1v-41.4c0-4.8,3.9-8.7,8.7-8.7h2.7
		c4.6,0,8.3,3.6,8.6,8.1C620.3,508.7,619.5,520.5,610.2,531.4z"/>
	<path class="st14" d="M599.8,465.5h-57l0,0c0-11.6,9.4-10.5,20.9-10.5h15.1C590.4,455.1,599.8,454,599.8,465.5L599.8,465.5z"/>
	<rect x="459.8" y="499.8" class="st4" width="47.9" height="70.1"/>
	<g>
		<path class="st13" d="M1144.9,547.1c0,3.5,2.8,6.4,6.4,6.4h42.9c3.5,0,6.4-2.8,6.4-6.4l0,0c0-3.5-2.8-6.4-6.4-6.4h-42.9
			C1147.8,540.8,1144.9,543.6,1144.9,547.1L1144.9,547.1z"/>
		<rect x="1051.9" y="529.5" class="st6" width="104.8" height="40.4"/>
		<rect x="1049.5" y="527.3" class="st4" width="109.5" height="4.5"/>
	</g>
	<g>
		<path class="st13" d="M874.9,497.4c0,3.5,2.8,6.4,6.4,6.4h42.9c3.5,0,6.4-2.8,6.4-6.4l0,0c0-3.5-2.8-6.4-6.4-6.4h-42.9
			C877.7,491,874.9,493.9,874.9,497.4L874.9,497.4z"/>
		<rect x="926.6" y="484.7" class="st6" width="80.7" height="85.2"/>
		<rect x="924" y="483.7" class="st4" width="85.8" height="4.5"/>
	</g>
</g>
<g id="Layer_5">
	<g>
		<g>
			<g>
				<g id="XMLID_2_">
					<g>
						<path class="st13" d="M1156.2,322.8c0.7,3,0.5,6.1-0.3,9c0,0.1-0.1,0.1-0.1,0.2c-1.2,4-7,3.4-7.4-0.7c-1-12-3.1-27.7-6.6-32.6
							c-1.2-1.6-17.4,7.5-17.4,7.5l-0.5,0.3c-1.9-4.6-3.7-8.4-4.9-10.7h0.4l19.7-8.7c4.6-2,9.9,0.8,10.8,5.6L1156.2,322.8z"/>
						<path class="st4" d="M1123.9,306.5c8.7,21.9,22,64-30,69.8c0,0-73.8,3.1-25.7-80.7l50.9,0.1
							C1120.3,298.1,1122.1,301.9,1123.9,306.5z"/>
						<path class="st15" d="M1066.3,364h50.5c17.9-13.3,9.5-39.1,3.5-54.2c-1.6-4.1-3.2-7.5-4.3-9.5l-45.3-0.1
							C1049.4,337.5,1055.2,355.4,1066.3,364z"/>
					</g>
				</g>
			</g>
			<line class="st16" x1="1096.6" y1="314.6" x2="1077.9" y2="337.7"/>
			<line class="st16" x1="1100.3" y1="327.1" x2="1087.4" y2="343"/>
		</g>
		<path class="st13" d="M1119.8,297.3H1060c-1.6,0-2.1-2.1-0.7-2.9l9.3-4.9h51.2V297.3z"/>
	</g>
	<rect x="931.9" y="370.1" class="st3" width="454.2" height="21.5"/>
	<rect x="957.9" y="391.3" class="st2" width="25.2" height="30.2"/>
	<rect x="1335.2" y="391.3" class="st2" width="25.2" height="30.2"/>
	<g>
		<rect x="983.1" y="300.2" class="st4" width="44.1" height="70.1"/>
	</g>
	<g>
		<rect x="984.9" y="344" class="st15" width="40.6" height="26.3"/>
	</g>
	<g>
		<g>
			<path class="st4" d="M1213.6,319.5H1180c-2.9,0-5.2,2.3-5.2,5.2v45.5h44.1v-45.5C1218.8,321.9,1216.5,319.5,1213.6,319.5z"/>
		</g>
		<rect x="1180" y="311.7" class="st17" width="33.7" height="7.8"/>
		<rect x="1175.9" y="336" class="st17" width="41.7" height="20.5"/>
	</g>
	<g>
		<g>
			<path class="st4" d="M1264.8,311.3h-33.6c-2.9,0-5.2,2.3-5.2,5.2v53.7h44.1v-53.7C1270,313.6,1267.7,311.3,1264.8,311.3z"/>
		</g>
		<rect x="1231.1" y="303.4" class="st18" width="33.7" height="7.8"/>
		<rect x="1227.1" y="327.8" class="st18" width="41.7" height="28.7"/>
	</g>
	<g>
		<g>
			<path class="st4" d="M1307.1,327.8h-24.8c-2.9,0-5.2,2.3-5.2,5.2v37.3h35.2V333C1312.3,330.1,1310,327.8,1307.1,327.8z"/>
		</g>
		<rect x="1282.3" y="319.9" class="st19" width="24.9" height="7.8"/>
		<rect x="1278.3" y="344.2" class="st19" width="32.9" height="12.2"/>
	</g>
</g>
<g id="Layer_6">
	<g>
		<path class="st17" d="M474.4,283.1c1.4,19.3,33.1,34.7,72,34.7s70.7-15.4,72-34.7H474.4z"/>
		<path class="st18" d="M474.4,298.2c1.4,19.3,33.1,34.7,72,34.7s70.7-15.4,72-34.7H474.4z"/>
		<path class="st19" d="M474.4,315.6c1.4,19.3,33.1,34.7,72,34.7s70.7-15.4,72-34.7H474.4z"/>
		<path class="st4" d="M474.4,335.8c1.4,19.3,33.1,34.7,72,34.7s70.7-15.4,72-34.7H474.4z"/>
	</g>
	<g>
		<path class="st17" d="M647.9,332.9c1.4,8.3,33.1,14.9,72,14.9s70.7-6.6,72-14.9H647.9z"/>
		<path class="st18" d="M647.9,339.4c1.4,8.3,33.1,14.9,72,14.9s70.7-6.6,72-14.9H647.9z"/>
		<path class="st19" d="M647.9,346.9c1.4,8.3,33.1,14.9,72,14.9s70.7-6.6,72-14.9H647.9z"/>
		<path class="st4" d="M647.9,355.6c1.4,8.3,33.1,14.9,72,14.9s70.7-6.6,72-14.9H647.9z"/>
	</g>
	<g>
		<path class="st17" d="M400.3,332.9c0.4,8.3,10.7,14.9,23.2,14.9s22.8-6.6,23.2-14.9H400.3z"/>
		<path class="st18" d="M400.3,339.4c0.4,8.3,10.7,14.9,23.2,14.9s22.8-6.6,23.2-14.9H400.3z"/>
		<path class="st19" d="M400.3,346.9c0.4,8.3,10.7,14.9,23.2,14.9s22.8-6.6,23.2-14.9H400.3z"/>
		<path class="st4" d="M400.3,355.6c0.4,8.3,10.7,14.9,23.2,14.9s22.8-6.6,23.2-14.9H400.3z"/>
	</g>
	<rect x="388.5" y="370.1" class="st3" width="454.2" height="21.5"/>
	<rect x="414.4" y="391.3" class="st2" width="25.2" height="30.2"/>
	<rect x="791.8" y="391.3" class="st2" width="25.2" height="30.2"/>
</g>
</svg>
